<svg width="164" height="517" viewBox="0 0 164 517" fill="none" xmlns="http://www.w3.org/2000/svg">
<path d="M43.3736 109.355C26.8927 84.3505 16.3438 114.067 24.7888 131.061C33.6721 148.939 47.5815 131.061 47.5815 131.061L43.3736 109.355Z" fill="#EBAE9C"/>
<path d="M90.245 487.195C90.245 488.314 75.605 463.721 65.0561 445.844C59.0657 435.742 54.4195 427.76 54.4195 427.76C54.4195 427.76 67.7152 360.139 69.4393 336.842C29.7857 388.972 10.6749 444.312 3.54485 469.14C1.09024 477.623 0.038269 482.541 0.038269 482.541L0.0967133 461.984L0.593473 219.005L0.622701 202.217L2.96042 202.394L8.83393 202.865L17.8634 203.601L19.6167 203.749L28.9968 204.544L46.2959 158.982L46.9095 157.332L47.9907 159.1L75.2544 204.573L71.1926 222.627C71.1926 222.627 76.3356 225.956 83.4072 232.818C93.9269 243.097 108.684 261.268 116.544 287.923C118.97 296.051 120.723 305.005 121.512 314.724C126.713 377.633 90.245 485.457 90.245 487.195Z" fill="#51477D"/>
<path opacity="0.3" d="M79.1993 324.414L78.0596 439.335L65.0561 445.844C59.0657 435.742 54.4195 427.761 54.4195 427.761C54.4195 427.761 67.7152 360.139 69.4393 336.842C29.7858 388.972 10.6749 444.312 3.54489 469.141L0.096756 461.984L0.593516 219.005L2.96046 202.394L8.83397 202.865L17.8634 203.602C21.1654 241.624 28.7338 322.941 33.9644 334.81C40.8315 350.39 79.1993 324.414 79.1993 324.414Z" fill="#51477D"/>
<path d="M61.9294 411.415C99.5083 428.32 111.606 480.273 79.287 512.818C65.9912 526.219 40.5393 505.249 42.8478 478.418C45.1563 451.646 61.9294 411.415 61.9294 411.415Z" fill="#ECECEC"/>
<path d="M56.1435 501.773C81.946 513.26 94.3067 477.299 89.6897 452.235C85.0727 427.172 18.5646 351.392 18.5646 351.392L14.5029 366.559C14.5029 366.559 36.4774 493.026 56.1435 501.773Z" fill="#FFC3AA"/>
<path d="M83.3778 232.759C72.1568 237.236 49.0426 243.715 37.9092 243.391C27.0388 243.067 21.6913 217.738 19.5874 203.749L28.9675 204.544L39.7502 176.152L46.9094 157.303L75.2543 204.544L71.5139 221.184L71.1925 222.598C71.1633 222.569 76.3355 225.926 83.3778 232.759Z" fill="#FFC3AA"/>
<path opacity="0.2" d="M116.515 287.864C90.5372 275.258 35.747 245.011 8.83398 202.836L19.5875 203.719L28.9676 204.515L46.2667 158.952L47.9615 159.07L75.2252 204.544L71.1634 222.598C71.1634 222.598 76.3064 225.926 83.378 232.788C93.8977 243.038 108.655 261.21 116.515 287.864Z" fill="#FFBB96"/>
<path opacity="0.2" d="M75.2251 204.515L71.4847 221.155C54.0688 213.527 44.8932 195.237 39.7502 176.123L46.9095 157.274L75.2251 204.515Z" fill="#7F4F50"/>
<path d="M141.558 109.355C158.039 84.3505 168.588 114.067 160.143 131.061C151.26 148.939 137.35 131.061 137.35 131.061L141.558 109.355Z" fill="#EBAE9C"/>
<path d="M98.6316 36.6971C96.5861 37.1684 94.5405 38.4937 92.495 40.4965C90.4495 38.4937 88.404 37.1684 86.3585 36.6971C57.3416 30.0999 39.0782 23.002 33.9352 116.424C37.208 138.13 37.208 217.856 92.4366 217.856C92.4658 217.856 92.4658 217.856 92.495 217.856C92.5243 217.856 92.5243 217.856 92.5535 217.856C147.782 217.856 147.782 138.13 151.055 116.424C149.477 77.282 152.195 41.8807 146.146 30.3944C136.912 12.8705 116.164 32.7211 98.6316 36.6971Z" fill="#7F4F50"/>
<path d="M20.201 340.848C25.9577 345.825 25.4609 372.833 22.9186 375.719C20.3763 378.605 11.5807 370.094 11.5807 370.094L13.1879 340.524L20.201 340.848Z" fill="#FFC3AA"/>
<path d="M19.6751 320.114C22.0129 319.259 23.62 320.82 23.2986 323.618L21.4284 339.493C21.107 342.261 18.9446 345.207 16.6069 346.061C14.2692 346.915 12.662 345.354 12.9835 342.556L14.8536 326.681C15.1751 323.913 17.3374 320.968 19.6751 320.114Z" fill="#EBAE9C"/>
<path d="M-0.575398 334.84C-0.633841 332.336 1.38244 331.305 3.86627 332.513L18.1848 339.434C20.6978 340.642 22.7433 343.646 22.8018 346.149C22.8602 348.653 20.8439 349.683 18.3601 348.476L4.0416 341.555C1.55777 340.347 -0.516955 337.343 -0.575398 334.84Z" fill="#FFC3AA"/>
<path d="M-3.90667 342.497C-3.96512 339.994 -1.94883 338.963 0.534993 340.17L18.3601 348.77C20.8732 349.978 22.9187 352.982 22.9771 355.485C23.0355 357.989 21.0193 359.02 18.5354 357.812L0.710326 349.212C-1.80272 348.005 -3.84823 345 -3.90667 342.497Z" fill="#FFC3AA"/>
<path d="M-2.21192 352.57C-2.27036 350.066 -0.254078 349.035 2.22975 350.243L18.5353 358.136C21.0484 359.344 23.0939 362.348 23.1523 364.851C23.2108 367.355 21.1945 368.385 18.7107 367.178L2.40507 359.285C-0.107978 358.077 -2.1827 355.073 -2.21192 352.57Z" fill="#FFC3AA"/>
<path d="M0.973384 363.378C0.914941 360.875 2.93122 359.844 5.41505 361.052L18.7108 367.472C21.2239 368.68 23.2694 371.684 23.3278 374.187C23.3862 376.691 21.37 377.722 18.8861 376.514L5.59037 370.094C3.07732 368.886 1.00261 365.882 0.973384 363.378Z" fill="#FFC3AA"/>
<path d="M131.389 42.3519C131.389 42.3519 97.6964 34.341 92.5242 38.1109C92.495 38.1403 92.495 38.1403 92.4658 38.1698C92.4366 38.1403 92.4366 38.1109 92.4073 38.1109C87.2644 34.341 53.5428 42.3519 53.5428 42.3519C46.5296 65.0005 42.2049 104.378 42.7308 121.254C59.6501 132.004 87.2644 132.004 92.4073 132.004C92.4366 132.004 92.4366 132.004 92.4658 131.974C92.495 131.974 92.495 132.004 92.5242 132.004C97.6672 132.004 125.282 132.004 142.201 121.254C142.727 104.378 138.402 65.0005 131.389 42.3519Z" fill="#FFC3AA"/>
<path d="M108.099 128.263C108.625 131.002 98.1349 142.4 92.5536 142.724C92.5244 142.724 92.4952 142.695 92.4659 142.695C92.4367 142.695 92.4075 142.724 92.3783 142.724C86.797 142.4 76.3065 131.002 76.8324 128.263C77.3584 125.642 84.43 110.504 85.2775 108.678C85.3067 108.648 85.3067 108.619 85.3067 108.619L92.3198 105.939C92.349 105.88 92.3491 105.821 92.3491 105.821L92.4951 105.88L92.6413 105.821C92.6413 105.821 92.6413 105.88 92.6705 105.939L99.6836 108.619C99.6836 108.619 99.7129 108.678 99.7713 108.796C100.853 111.211 107.603 125.701 108.099 128.263Z" fill="#FFC3AA"/>
<path d="M71.8938 99.7538C71.8938 106.381 69.7899 111.741 67.16 111.741C64.5592 111.741 62.4261 106.381 62.4261 99.7538C62.4261 93.1271 64.53 87.7669 67.16 87.7669C69.7607 87.7669 71.8938 93.1271 71.8938 99.7538Z" fill="#003752"/>
<path d="M121.424 99.7538C121.424 106.381 119.32 111.741 116.69 111.741C114.09 111.741 111.956 106.381 111.956 99.7538C111.956 93.1271 114.06 87.7669 116.69 87.7669C119.291 87.7669 121.424 93.1271 121.424 99.7538Z" fill="#003752"/>
<path d="M52.7247 81.582C55.2377 78.4895 76.4817 80.7279 79.9006 78.4895C83.3488 76.2512 80.5143 59.3457 80.5143 59.3457C80.5143 59.3457 62.7184 60.7594 57.4001 64.9711C52.111 69.2121 52.7247 81.582 52.7247 81.582Z" fill="#7F4F50"/>
<path d="M132.236 81.582C129.782 78.4895 108.888 80.7279 105.528 78.4895C102.138 76.2512 104.914 59.3457 104.914 59.3457C104.914 59.3457 122.418 60.7594 127.649 64.9711C132.85 69.2121 132.236 81.582 132.236 81.582Z" fill="#7F4F50"/>
<path d="M92.4657 148.585C86.4753 148.556 71.3385 146.848 63.5948 141.281C66.6631 165.491 79.7835 174.208 92.3488 174.208C92.378 174.208 92.4072 174.208 92.4364 174.208C92.4657 174.208 92.4949 174.208 92.5241 174.208C105.089 174.208 118.21 165.491 121.278 141.281C113.593 146.848 98.4561 148.556 92.4657 148.585Z" fill="white"/>
<path d="M53.5721 42.3519C63.1276 52.8368 112.22 62.2026 147.198 43.4711C182.147 24.7102 158.097 -2.12055 116.077 0.147247C74.0272 2.3856 53.1922 27.9499 53.1922 27.9499L53.5721 42.3519Z" fill="#7F4F50"/>
<path d="M53.1921 27.9499C53.1921 27.9499 37.471 8.21709 32.328 39.9074C27.185 71.5977 32.591 104.348 33.906 116.424C35.2209 128.499 44.9517 49.0081 53.572 42.3519C62.1631 35.6958 53.1921 27.9499 53.1921 27.9499Z" fill="#7F4F50"/>
<path d="M108.099 128.263C108.625 131.002 98.1349 142.4 92.5536 142.724C92.5244 142.724 92.4952 142.695 92.4659 142.695C92.4367 142.695 92.4075 142.724 92.3783 142.724C86.797 142.4 76.3065 131.002 76.8324 128.263C77.3584 125.642 84.43 110.504 85.2775 108.678C84.9268 109.709 79.3163 126.467 79.1702 128.116C78.9948 129.824 88.5795 140.309 92.612 139.985C96.6446 139.661 105.031 130.826 106.375 128.97C107.632 127.203 100.56 110.769 99.7129 108.825C100.852 111.211 107.603 125.701 108.099 128.263Z" fill="#EBAE9C"/>
</svg>
